<svg width="19" height="20" viewBox="0 0 19 20" fill="none" xmlns="http://www.w3.org/2000/svg">
<path d="M8.20338 14.8765C8.99132 14.8765 9.77153 14.7213 10.4995 14.4198C11.2274 14.1182 11.8889 13.6763 12.446 13.1191C13.0032 12.562 13.4451 11.9005 13.7467 11.1726C14.0482 10.4446 14.2034 9.66441 14.2034 8.87648C14.2034 8.08855 14.0482 7.30833 13.7467 6.58038C13.4451 5.85243 13.0032 5.19099 12.446 4.63384C11.8889 4.07669 11.2274 3.63473 10.4995 3.3332C9.77153 3.03167 8.99132 2.87648 8.20338 2.87648C6.61209 2.87648 5.08596 3.50862 3.96074 4.63384C2.83553 5.75906 2.20338 7.28518 2.20338 8.87648C2.20338 10.4678 2.83553 11.9939 3.96074 13.1191C5.08596 14.2443 6.61209 14.8765 8.20338 14.8765ZM14.5234 13.7825L18.1034 17.3625C18.1988 17.4548 18.2749 17.5652 18.3272 17.6872C18.3796 17.8093 18.4071 17.9405 18.4081 18.0733C18.4092 18.2061 18.3838 18.3377 18.3334 18.4606C18.2831 18.5835 18.2087 18.695 18.1148 18.7889C18.0208 18.8827 17.9091 18.9569 17.7862 19.0071C17.6632 19.0573 17.5315 19.0825 17.3988 19.0812C17.266 19.08 17.1348 19.0523 17.0128 18.9998C16.8909 18.9473 16.7806 18.8711 16.6884 18.7755L13.1084 15.1955C11.5008 16.4433 9.47818 17.0316 7.45214 16.8407C5.4261 16.6497 3.54899 15.6938 2.20293 14.1675C0.856881 12.6413 0.143069 10.6594 0.20681 8.6254C0.270551 6.59138 1.10705 4.6581 2.54603 3.21913C3.98501 1.78015 5.91829 0.943647 7.95231 0.879906C9.98633 0.816165 11.9682 1.52998 13.4944 2.87603C15.0207 4.22208 15.9766 6.09919 16.1676 8.12523C16.3586 10.1513 15.7702 12.1739 14.5224 13.7815L14.5234 13.7825Z" fill="#181B19"/>
</svg>
